<?xml version="1.0" encoding="UTF-8" standalone="no"?>
<svg
   xmlns:dc="http://purl.org/dc/elements/1.1/"
   xmlns:cc="http://creativecommons.org/ns#"
   xmlns:rdf="http://www.w3.org/1999/02/22-rdf-syntax-ns#"
   xmlns:svg="http://www.w3.org/2000/svg"
   xmlns="http://www.w3.org/2000/svg"
   xmlns:sodipodi="http://sodipodi.sourceforge.net/DTD/sodipodi-0.dtd"
   xmlns:inkscape="http://www.inkscape.org/namespaces/inkscape"
   height="46.302082mm"
   width="90.560455mm"
   version="1.1"
   viewBox="0 0 90.396421 46.270155"
   id="svg4507"
   sodipodi:docname="brand.svg"
   inkscape:version="0.92.0 unknown"
   inkscape:export-filename="/home/zachleigh/Web/Larafolio/dist/images/brand.png"
   inkscape:export-xdpi="89.855598"
   inkscape:export-ydpi="89.855598">
  <metadata
     id="metadata4513">
    <rdf:RDF>
      <cc:Work
         rdf:about="">
        <dc:format>image/svg+xml</dc:format>
        <dc:type
           rdf:resource="http://purl.org/dc/dcmitype/StillImage" />
        <dc:title></dc:title>
      </cc:Work>
    </rdf:RDF>
  </metadata>
  <defs
     id="defs4511" />
  <sodipodi:namedview
     pagecolor="#ffffff"
     bordercolor="#666666"
     borderopacity="1"
     objecttolerance="10"
     gridtolerance="10"
     guidetolerance="10"
     inkscape:pageopacity="0"
     inkscape:pageshadow="2"
     inkscape:window-width="1920"
     inkscape:window-height="1011"
     id="namedview4509"
     showgrid="true"
     fit-margin-top="0"
     fit-margin-left="0"
     fit-margin-right="0"
     fit-margin-bottom="0"
     inkscape:zoom="1.4142294"
     inkscape:cx="299.12795"
     inkscape:cy="189.12454"
     inkscape:window-x="0"
     inkscape:window-y="0"
     inkscape:window-maximized="1"
     inkscape:current-layer="svg4507">
    <inkscape:grid
       type="xygrid"
       id="grid4631"
       originx="-7.2772581e-08"
       originy="-1.3698002e-06" />
  </sodipodi:namedview>
  <g
     id="g4538"
     transform="matrix(0.48839965,0,0,0.48839965,-0.05321009,0)">
    <g
       style="fill:#5a5a5a;fill-opacity:1"
       id="g4505"
       transform="translate(-25.344007,15.224311)">
      <g
         style="fill:#5a5a5a;fill-opacity:1;stroke-width:0.26499999px"
         id="g4503"
         aria-label="Larafolio">
        <path
           style="fill:#5a5a5a;fill-opacity:1"
           inkscape:connector-curvature="0"
           id="path4485"
           d="m 30.1,78.5 q -4.86,0 -4.86,-3.49 0,-0.674 0.186,-1.49 l 6.69,-29 4.9,-2.09 h 0.232 l -7.18,31.1 q -0.232,1.02 0.93,1.02 h 8.02 q 2.74,0 4.07,-2.72 h 0.232 l 3.11,1.65 q -2.56,5.02 -8.32,5.02 z" />
        <path
           style="fill:#5a5a5a;fill-opacity:1"
           inkscape:connector-curvature="0"
           id="path4487"
           d="m 56.7,79 q -5.16,0 -6.86,-5.37 -0.465,-1.46 -0.465,-3.3 0,-2.07 0.581,-4.58 1.16,-4.9 3.49,-7.88 4.18,-5.37 9.39,-5.37 5.25,0 6.86,5.37 0.442,1.49 0.442,3.3 0,2.07 -0.581,4.58 l -2.02,8.74 q -0.232,1.02 0.883,1.02 h 1.79 l -0.0465,0.232 -2.6,3.72 q -4.86,0 -4.86,-3.49 0,-0.674 0.186,-1.49 l 2.02,-8.74 q 0.651,-2.88 0.651,-4.67 0,-0.883 -0.163,-1.56 -0.86,-3.07 -3.49,-3.07 -2.63,0 -4.88,3.07 -1.42,1.93 -2.42,6.23 -0.651,2.81 -0.651,4.6 0,0.953 0.186,1.63 0.837,3.04 3.44,3.07 h 1.79 l -0.0697,0.232 z" />
        <path
           style="fill:#5a5a5a;fill-opacity:1"
           inkscape:connector-curvature="0"
           id="path4489"
           d="m 74.1,79.5 3.16,-13.7 q 1.12,-4.86 3.49,-7.88 4.21,-5.37 9.37,-5.37 h 3.14 l -0.0697,0.232 -2.63,3.72 h -1.37 q -2.63,0 -4.88,3.07 -1.39,1.91 -2.39,6.23 l -2.67,11.6 -4.9,2.09 z" />
        <path
           style="fill:#5a5a5a;fill-opacity:1"
           inkscape:connector-curvature="0"
           id="path4491"
           d="m 99,79 q -5.16,0 -6.86,-5.37 -0.465,-1.46 -0.465,-3.3 0,-2.07 0.581,-4.58 1.16,-4.9 3.49,-7.88 4.18,-5.37 9.39,-5.37 5.25,0 6.86,5.37 0.442,1.49 0.442,3.3 0,2.07 -0.581,4.58 l -2.02,8.74 q -0.232,1.02 0.883,1.02 h 1.79 l -0.0465,0.232 -2.6,3.72 q -4.86,0 -4.86,-3.49 0,-0.674 0.186,-1.49 l 2.02,-8.74 q 0.651,-2.88 0.651,-4.67 0,-0.883 -0.163,-1.56 -0.86,-3.07 -3.49,-3.07 -2.63,0 -4.88,3.07 -1.42,1.93 -2.42,6.23 -0.651,2.81 -0.651,4.6 0,0.953 0.186,1.63 0.837,3.04 3.44,3.07 h 1.79 l -0.0697,0.232 z" />
        <path
           style="fill:#5a5a5a;fill-opacity:1"
           inkscape:connector-curvature="0"
           id="path4493"
           d="m 117,79.5 5.37,-23.2 q 1.12,-4.83 3.49,-7.88 4.18,-5.37 9.34,-5.37 h 3.14 l -0.0465,0.232 -2.63,3.72 h -1.37 q -2.58,0 -4.88,3.07 -1.23,1.65 -2.18,5.3 h 8.27 l -0.0465,0.232 -2.6,3.72 h -6.53 l -4.18,18.1 -4.9,2.09 z" />
        <path
           style="fill:#5a5a5a;fill-opacity:1"
           inkscape:connector-curvature="0"
           id="path4495"
           d="m 141,65.7 q -0.651,2.88 -0.651,4.67 0,0.906 0.163,1.56 0.883,3.07 3.49,3.07 2.6,0 4.88,-3.07 1.44,-1.95 2.42,-6.23 0.651,-2.86 0.651,-4.65 0,-0.953 -0.186,-1.58 -0.79,-3.07 -3.49,-3.07 -2.72,0 -4.95,3.11 -1.35,1.88 -2.32,6.18 z m -4.65,0.0232 q 1.12,-4.88 3.49,-7.9 4.21,-5.37 9.37,-5.37 5.16,0 6.86,5.37 0.465,1.46 0.465,3.3 0,2.02 -0.581,4.58 -1.19,4.97 -3.49,7.88 -4.25,5.37 -9.39,5.37 -5.07,0 -6.86,-5.35 -0.465,-1.42 -0.465,-3.16 0,-2.05 0.604,-4.72 z" />
        <path
           style="fill:#5a5a5a;fill-opacity:1"
           inkscape:connector-curvature="0"
           id="path4497"
           d="m 167,79.5 q -4.86,0 -4.86,-3.49 0,-0.674 0.186,-1.49 l 6.9,-29.9 4.9,-2.09 h 0.232 l -7.39,32 q -0.232,1.02 0.883,1.02 h 1.79 l -0.0465,0.232 z" />
        <path
           style="fill:#5a5a5a;fill-opacity:1"
           inkscape:connector-curvature="0"
           id="path4499"
           d="m 182,45.8 q 0.279,-1.19 1.28,-2.02 0.999,-0.837 2.18,-0.837 1.19,0 1.79,0.837 0.442,0.604 0.442,1.32 0,0.279 -0.093,0.697 -0.349,1.23 -1.28,2 -1.02,0.837 -2.21,0.837 -1.16,0 -1.79,-0.86 -0.418,-0.558 -0.418,-1.23 0,-0.325 0.093,-0.744 z m -1.46,33.6 q -4.86,0 -4.86,-3.49 0,-0.674 0.186,-1.49 l 4.69,-20.4 4.9,-2.09 h 0.232 l -5.18,22.5 q -0.232,1.02 0.883,1.02 h 1.79 l -0.0465,0.232 z" />
        <path
           style="fill:#5a5a5a;fill-opacity:1"
           inkscape:connector-curvature="0"
           id="path4501"
           d="m 195,65.7 q -0.651,2.88 -0.651,4.67 0,0.906 0.163,1.56 0.883,3.07 3.49,3.07 2.6,0 4.88,-3.07 1.44,-1.95 2.42,-6.23 0.651,-2.86 0.651,-4.65 0,-0.953 -0.186,-1.58 -0.79,-3.07 -3.49,-3.07 -2.72,0 -4.95,3.11 -1.35,1.88 -2.32,6.18 z m -4.65,0.0232 q 1.12,-4.88 3.49,-7.9 4.21,-5.37 9.37,-5.37 5.16,0 6.86,5.37 0.465,1.46 0.465,3.3 0,2.02 -0.581,4.58 -1.19,4.97 -3.49,7.88 -4.25,5.37 -9.39,5.37 -5.07,0 -6.86,-5.35 -0.465,-1.42 -0.465,-3.16 0,-2.05 0.604,-4.72 z" />
      </g>
    </g>
    <g
       style="fill:#4390ad;fill-opacity:1"
       transform="matrix(0.28202765,0,0,0.28202765,68.571145,5.3761521e-6)"
       id="g4629">
      <g
         style="fill:#4390ad;fill-opacity:1"
         transform="translate(-12.598673,-7.4013362)"
         id="g4585" />
      <g
         style="fill:#4390ad;fill-opacity:1"
         transform="translate(-72.598672,-468.33498)"
         id="g4607">
        <g
           style="fill:#4390ad;fill-opacity:1"
           id="g4605">
          <rect
             style="fill:#4390ad;fill-opacity:1"
             width="20"
             height="10"
             x="147.59865"
             y="468.33496"
             ry="5"
             id="rect4587" />
          <rect
             style="fill:#4390ad;fill-opacity:1"
             width="39.999992"
             height="10"
             x="122.59866"
             y="488.33496"
             ry="5"
             id="rect4589" />
          <rect
             style="fill:#4390ad;fill-opacity:1"
             ry="5"
             y="508.33496"
             x="87.598671"
             height="10"
             width="69.999992"
             id="rect4591" />
          <rect
             style="fill:#4390ad;fill-opacity:1"
             ry="5"
             y="528.33496"
             x="122.59866"
             height="10"
             width="39.999992"
             id="rect4593" />
          <rect
             style="fill:#4390ad;fill-opacity:1"
             ry="5"
             y="548.33496"
             x="147.59865"
             height="10"
             width="20"
             id="rect4595" />
          <rect
             style="fill:#4390ad;fill-opacity:1"
             ry="5"
             y="568.33496"
             x="152.59866"
             height="10"
             width="39.999996"
             id="rect4597" />
          <rect
             style="fill:#4390ad;fill-opacity:1"
             width="69.999992"
             height="10"
             x="157.59866"
             y="588.33496"
             ry="5"
             id="rect4599" />
          <rect
             style="fill:#4390ad;fill-opacity:1"
             width="39.999996"
             height="10"
             x="152.59866"
             y="608.33496"
             ry="5"
             id="rect4601" />
          <rect
             style="fill:#4390ad;fill-opacity:1"
             width="20"
             height="10"
             x="147.59865"
             y="628.33496"
             ry="5"
             id="rect4603" />
        </g>
      </g>
    </g>
  </g>
</svg>
